<?xml version="1.0" encoding="UTF-8" standalone="no"?>
<!DOCTYPE svg PUBLIC "-//W3C//DTD SVG 1.1//EN" "http://www.w3.org/Graphics/SVG/1.1/DTD/svg11.dtd">
<svg xmlns="http://www.w3.org/2000/svg" version="1.1" viewBox="0.00 0.00 1024.00 1024.00" fill="#f9f2e9">
<path d="
  M 346.66 478.52
  C 374.98 478.75 400.98 467.33 422.76 449.03
  C 443.18 431.88 460.73 412.26 479.03 393.05
  C 490.50 381.00 504.44 369.50 519.29 362.00
  Q 542.49 350.29 568.72 348.84
  Q 568.84 348.83 568.86 348.96
  L 568.86 348.96
  Q 568.87 349.02 568.81 349.04
  Q 563.55 350.28 558.95 352.11
  C 539.03 360.08 523.06 372.30 508.61 387.62
  C 492.00 405.21 475.96 422.87 457.86 439.49
  C 443.38 452.79 427.51 463.55 409.90 470.88
  C 397.39 476.09 384.90 478.53 370.87 479.65
  Q 358.50 480.63 346.70 478.75
  Q 346.62 478.74 346.62 478.64
  Q 346.62 478.61 346.61 478.58
  Q 346.60 478.52 346.66 478.52
  Z"
/>
<path d="
  M 549.96 411.96
  C 528.76 422.24 509.75 436.26 491.04 451.23
  Q 476.57 462.81 459.77 474.24
  Q 438.93 488.43 416.55 497.14
  Q 409.44 499.90 400.61 502.43
  C 379.57 508.46 357.58 510.19 335.86 507.94
  Q 335.68 507.92 335.68 507.74
  L 335.68 507.73
  Q 335.69 507.57 335.85 507.56
  Q 341.52 507.27 347.10 507.13
  C 358.16 506.86 369.60 503.96 380.10 500.75
  Q 388.35 498.23 397.70 493.74
  Q 408.49 488.57 417.80 482.79
  Q 430.44 474.94 442.45 466.13
  Q 462.15 451.68 481.16 438.09
  Q 491.11 430.97 504.93 422.82
  Q 529.17 408.51 554.12 401.04
  C 573.54 395.23 593.78 393.57 614.29 393.48
  Q 614.31 393.48 614.31 393.49
  L 614.32 393.80
  Q 614.33 394.05 614.09 394.06
  Q 601.30 394.84 586.92 398.61
  Q 566.43 403.97 549.96 411.96
  Z"
/>
<path d="
  M 542.84 485.70
  C 525.96 500.85 512.77 521.58 507.23 543.55
  Q 506.20 547.64 505.82 543.44
  Q 504.73 531.59 507.84 517.60
  C 510.47 505.80 517.12 493.43 525.08 483.40
  C 545.76 457.31 575.94 437.79 609.12 431.16
  Q 622.02 428.58 636.16 429.65
  C 647.17 430.48 657.24 434.00 666.69 439.20
  A 0.12 0.12 0.0 0 1 666.63 439.43
  Q 641.65 437.88 618.98 443.62
  Q 609.39 446.05 599.42 450.05
  Q 568.92 462.30 542.84 485.70
  Z"
/>
<path d="
  M 522.98 550.51
  C 522.95 504.09 575.08 472.61 616.64 468.38
  Q 632.07 466.81 647.07 468.53
  Q 663.85 470.46 679.29 479.08
  Q 683.64 481.51 687.89 485.50
  Q 688.65 486.22 687.62 486.05
  C 674.56 483.93 661.41 482.36 648.82 481.89
  Q 629.12 481.14 607.77 486.08
  Q 600.58 487.75 587.81 492.41
  C 573.81 497.53 558.98 506.49 547.46 516.71
  C 537.13 525.87 529.18 537.85 523.95 550.70
  Q 522.98 553.07 522.98 550.51
  Z"
/>
<path d="
  M 722.64 611.90
  A 0.69 0.68 88.8 0 0 723.36 612.60
  Q 730.11 612.23 736.88 612.66
  A 0.96 0.95 -82.1 0 0 737.88 611.90
  Q 738.03 611.23 737.68 610.66
  Q 737.37 610.13 737.97 610.00
  Q 741.97 609.12 746.01 610.15
  A 0.77 0.77 0.0 0 1 746.56 611.11
  Q 745.27 615.58 743.19 619.84
  A 1.07 1.04 6.2 0 1 742.46 620.41
  Q 740.52 620.81 738.25 620.83
  C 704.84 621.03 673.57 620.71 642.44 620.81
  Q 592.06 620.99 541.82 620.80
  Q 539.70 620.79 538.37 622.79
  Q 536.33 625.86 534.51 629.01
  Q 534.25 629.46 533.75 629.59
  Q 531.98 630.03 530.18 630.02
  Q 509.96 629.86 490.57 629.74
  Q 488.64 629.73 487.69 628.06
  L 484.09 621.78
  A 2.05 2.05 0.0 0 0 482.27 620.74
  C 460.69 621.17 439.10 620.75 417.50 620.80
  Q 347.26 620.95 280.82 620.65
  A 1.80 1.79 80.0 0 1 279.13 619.46
  L 276.35 611.63
  Q 275.70 609.79 277.65 609.78
  L 282.00 609.74
  Q 283.95 609.73 283.76 611.67
  Q 283.54 613.87 285.96 613.80
  C 289.99 613.68 293.97 613.29 298.00 613.29
  Q 393.84 613.26 481.25 613.19
  Q 483.25 613.19 485.02 613.41
  C 490.36 614.07 489.71 622.24 494.85 622.25
  Q 511.02 622.29 526.04 622.20
  Q 528.37 622.18 530.10 621.51
  Q 530.52 621.35 530.77 620.97
  C 533.92 616.17 534.32 613.14 541.46 613.15
  C 598.78 613.28 656.76 613.42 714.50 612.74
  Q 718.11 612.70 720.94 611.83
  Q 723.14 611.16 721.00 610.31
  Q 719.28 609.63 717.11 609.30
  Q 714.31 608.89 711.49 608.46
  Q 695.73 606.06 680.17 603.98
  Q 672.76 603.00 660.40 600.92
  Q 632.35 596.23 604.46 595.01
  C 580.37 593.96 555.09 598.34 534.53 611.21
  Q 531.12 613.34 528.46 616.65
  Q 528.11 617.09 527.56 617.28
  Q 525.72 617.91 524.21 617.82
  Q 509.77 617.01 496.82 617.71
  A 2.91 2.90 -23.4 0 1 494.54 616.81
  C 492.71 614.90 490.85 612.93 488.53 611.59
  C 483.75 608.81 479.27 605.89 474.01 603.99
  Q 452.48 596.22 427.99 596.15
  Q 407.91 596.10 386.76 598.83
  Q 371.09 600.86 351.51 603.05
  C 335.28 604.86 318.33 606.66 301.82 609.24
  Q 294.62 610.37 286.87 610.76
  Q 286.23 610.79 286.50 610.21
  C 290.50 601.50 293.11 592.59 296.69 583.63
  Q 299.72 576.02 302.73 567.28
  C 304.11 563.29 306.01 559.45 307.38 555.34
  Q 310.24 546.73 313.74 539.29
  Q 314.33 538.04 315.72 537.68
  Q 318.69 536.92 321.75 536.52
  Q 353.65 532.36 380.11 527.96
  Q 390.74 526.20 397.24 526.06
  C 414.00 525.70 431.30 529.52 446.60 535.36
  Q 460.93 540.83 474.31 550.41
  Q 489.24 561.09 498.69 574.84
  C 502.92 580.99 507.27 587.71 509.23 594.89
  Q 510.25 598.62 510.98 594.82
  C 512.95 584.59 516.30 573.50 521.27 563.85
  C 525.25 556.12 529.67 548.61 535.41 542.41
  C 541.74 535.57 548.94 528.62 556.56 523.45
  Q 579.22 508.06 607.81 502.96
  Q 616.69 501.37 627.39 501.55
  Q 642.67 501.79 655.64 504.42
  Q 669.78 507.29 684.02 510.89
  Q 690.21 512.45 696.51 514.46
  C 698.24 515.01 699.60 515.44 700.36 517.28
  Q 704.16 526.49 707.21 534.88
  Q 709.11 540.14 710.88 544.53
  C 714.00 552.33 716.71 560.26 719.90 568.05
  C 722.40 574.16 724.36 580.42 726.79 586.48
  Q 731.07 597.11 734.88 607.37
  Q 735.32 608.55 736.13 609.40
  Q 737.44 610.78 735.54 610.73
  Q 732.49 610.66 729.54 610.59
  Q 728.21 610.55 726.91 611.03
  Q 725.10 611.69 723.17 611.32
  Q 722.66 611.22 722.64 611.90
  Z"
/>
</svg>
