<?xml version="1.0" encoding="UTF-8" standalone="no"?>
<!DOCTYPE svg PUBLIC "-//W3C//DTD SVG 1.1//EN" "http://www.w3.org/Graphics/SVG/1.1/DTD/svg11.dtd">
<svg xmlns="http://www.w3.org/2000/svg" version="1.1" viewBox="0.00 0.00 500.00 500.00">
<g stroke-width="2.00" fill="none" stroke-linecap="butt">
<path stroke="#7f472d" vector-effect="non-scaling-stroke" d="
  M 229.31 171.79
  Q 228.67 170.16 226.97 171.30"
/>
<path stroke="#7f472d" vector-effect="non-scaling-stroke" d="
  M 128.06 409.01
  Q 127.98 409.36 127.73 409.49"
/>
<path stroke="#9e9794" vector-effect="non-scaling-stroke" d="
  M 243.92 360.54
  Q 242.76 366.19 244.70 372.85"
/>
<path stroke="#9e9794" vector-effect="non-scaling-stroke" d="
  M 253.15 361.00
  Q 252.93 367.06 253.29 373.10
  Q 253.30 373.32 253.51 373.32
  L 253.52 373.32
  Q 253.73 373.32 253.75 373.11
  Q 254.30 367.08 254.04 361.02"
/>
<path stroke="#9e9794" vector-effect="non-scaling-stroke" d="
  M 256.7825 57.4215
  A 0.26 0.26 0.0 0 0 256.5144 57.1698
  L 255.9147 57.1887
  A 0.26 0.26 0.0 0 0 255.6630 57.4567
  L 261.9175 256.4785
  A 0.26 0.26 0.0 0 0 262.1856 256.7302
  L 262.7853 256.7113
  A 0.26 0.26 0.0 0 0 263.0370 256.4433
  L 256.7825 57.4215"
/>
<path stroke="#9e9794" vector-effect="non-scaling-stroke" d="
  M 252.87 72.38
  Q 252.73 72.49 252.63 72.64
  Q 252.42 72.97 252.40 73.36
  Q 252.25 76.00 252.24 78.50
  Q 252.05 107.68 252.03 136.98
  Q 252.02 146.07 252.17 156.99
  Q 252.78 204.46 253.19 256.44
  Q 253.19 256.77 253.60 256.61
  A 0.46 0.44 79.9 0 0 253.87 256.21
  Q 254.17 241.24 253.95 225.50
  Q 253.81 215.05 253.82 205.54
  Q 253.88 176.22 253.45 143.11
  Q 253.33 133.90 253.43 122.99
  Q 253.64 99.55 253.13 75.75
  C 253.09 73.65 254.14 71.19 254.02 68.73
  Q 253.78 63.90 253.72 58.42
  Q 253.72 58.35 253.79 58.38
  Q 253.79 58.38 253.66 58.37
  Q 253.58 58.37 253.56 58.45
  Q 252.93 63.36 253.40 67.77
  Q 253.62 69.78 253.26 71.75
  Q 253.19 72.14 252.87 72.38"
/>
<path stroke="#9e9794" vector-effect="non-scaling-stroke" d="
  M 245.48 211.28
  Q 246.56 184.03 246.98 156.75
  Q 247.14 146.42 247.44 136.75
  Q 248.49 103.78 249.20 71.75
  Q 249.34 65.30 248.98 58.70
  Q 248.97 58.45 248.72 58.46
  L 248.43 58.47
  Q 248.17 58.47 248.17 58.73
  Q 247.85 75.81 247.13 99.00
  C 246.05 133.84 245.30 167.63 244.80 203.00
  Q 244.75 206.76 244.86 210.41
  Q 244.87 210.90 244.69 211.36
  Q 244.43 212.03 244.72 212.64
  Q 244.85 212.91 245.09 212.74
  Q 245.30 212.60 245.26 212.51"
/>
<path stroke="#9e9794" vector-effect="non-scaling-stroke" d="
  M 251.7445 58.9177
  A 0.27 0.27 0.0 0 0 251.4721 58.6501
  L 251.4321 58.6504
  A 0.27 0.27 0.0 0 0 251.1645 58.9228
  L 251.2755 71.6423
  A 0.27 0.27 0.0 0 0 251.5479 71.9099
  L 251.5879 71.9096
  A 0.27 0.27 0.0 0 0 251.8555 71.6372
  L 251.7445 58.9177"
/>
</g>
<path fill="#3e332f" d="
  M 263.36 113.38
  Q 263.43 113.33 263.49 113.38
  Q 263.61 113.46 263.62 113.61
  C 264.30 125.79 264.63 138.17 265.58 150.89
  C 266.12 158.19 266.07 166.02 266.53 173.44
  Q 269.05 214.92 270.79 257.21
  A 0.84 0.84 0.0 0 1 269.95 258.09
  L 246.24 257.92
  Q 245.47 257.92 245.47 257.15
  C 245.33 244.38 245.55 232.55 245.14 218.69
  Q 245.13 218.47 244.93 218.56
  L 244.46 218.75
  A 0.42 0.41 -12.0 0 0 244.21 219.13
  L 244.29 256.80
  Q 244.30 258.15 242.95 258.18
  L 237.46 258.31
  Q 236.01 258.34 236.07 256.89
  Q 238.10 210.11 240.25 161.53
  Q 240.71 151.06 241.26 141.53
  Q 243.11 109.58 244.43 78.36
  A 1.36 1.36 0.0 0 0 243.09 76.94
  L 228.98 76.72
  A 1.13 1.13 0.0 0 0 227.84 77.66
  L 226.84 83.71
  A 1.38 1.37 -0.6 0 1 225.74 84.83
  Q 218.28 86.25 213.33 82.06
  C 210.13 79.36 208.60 75.09 210.42 71.13
  C 213.12 65.23 218.98 63.06 225.04 63.32
  A 1.82 1.81 88.3 0 1 226.76 64.95
  L 227.18 69.12
  Q 227.28 70.19 228.36 70.20
  L 243.96 70.41
  A 1.17 1.17 0.0 0 0 245.14 69.30
  L 246.68 40.34
  A 1.05 1.04 -89.5 0 0 245.60 39.24
  Q 242.34 39.35 238.71 39.06
  Q 236.98 38.92 237.03 37.18
  C 237.10 34.31 236.85 31.56 237.12 28.66
  A 1.16 1.15 -8.0 0 1 237.85 27.70
  Q 240.71 26.60 240.83 22.98
  A 0.78 0.78 0.0 0 1 241.66 22.23
  L 241.96 22.25
  A 0.74 0.73 7.0 0 1 242.64 23.11
  Q 242.39 24.50 243.23 25.40
  A 0.83 0.82 -61.4 0 0 244.65 24.98
  Q 245.85 18.21 248.12 12.01
  A 1.55 1.55 0.0 0 1 249.27 11.03
  Q 252.12 10.46 255.70 10.71
  C 257.23 10.82 258.15 11.69 258.50 13.10
  Q 259.67 17.79 261.33 24.85
  A 0.69 0.69 0.0 0 0 262.33 25.29
  L 262.84 25.00
  A 0.87 0.87 0.0 0 0 263.27 24.06
  Q 263.20 23.72 263.29 23.40
  Q 263.40 22.95 263.86 22.83
  Q 264.04 22.77 264.23 22.83
  Q 264.70 22.96 264.68 23.46
  Q 264.50 27.20 268.19 27.88
  A 0.86 0.85 1.4 0 1 268.89 28.61
  Q 269.55 33.54 268.88 38.35
  A 1.20 1.20 0.0 0 1 267.71 39.39
  L 260.43 39.53
  Q 259.08 39.56 259.17 40.90
  Q 259.85 51.57 260.81 62.59
  C 261.01 64.95 260.83 67.29 261.43 69.66
  A 1.06 1.05 81.8 0 0 262.49 70.46
  L 278.09 69.99
  A 1.02 1.01 5.0 0 0 279.06 69.18
  L 279.85 65.28
  A 1.81 1.80 -87.7 0 1 281.39 63.85
  Q 286.01 63.26 290.17 65.08
  C 299.88 69.36 298.29 82.16 288.53 84.89
  C 286.00 85.60 280.53 86.85 279.62 83.25
  Q 279.07 81.07 279.09 78.52
  A 1.59 1.58 0.9 0 0 277.54 76.93
  L 263.67 76.60
  A 1.90 1.90 0.0 0 0 261.73 78.59
  Q 261.98 83.55 262.04 89.12
  Q 262.11 94.54 262.65 99.83
  Q 263.34 106.45 262.92 113.14
  Q 262.88 113.74 263.36 113.38
  Z
  M 256.7825 57.4215
  A 0.26 0.26 0.0 0 0 256.5144 57.1698
  L 255.9147 57.1887
  A 0.26 0.26 0.0 0 0 255.6630 57.4567
  L 261.9175 256.4785
  A 0.26 0.26 0.0 0 0 262.1856 256.7302
  L 262.7853 256.7113
  A 0.26 0.26 0.0 0 0 263.0370 256.4433
  L 256.7825 57.4215
  Z
  M 252.87 72.38
  Q 252.73 72.49 252.63 72.64
  Q 252.42 72.97 252.40 73.36
  Q 252.25 76.00 252.24 78.50
  Q 252.05 107.68 252.03 136.98
  Q 252.02 146.07 252.17 156.99
  Q 252.78 204.46 253.19 256.44
  Q 253.19 256.77 253.60 256.61
  A 0.46 0.44 79.9 0 0 253.87 256.21
  Q 254.17 241.24 253.95 225.50
  Q 253.81 215.05 253.82 205.54
  Q 253.88 176.22 253.45 143.11
  Q 253.33 133.90 253.43 122.99
  Q 253.64 99.55 253.13 75.75
  C 253.09 73.65 254.14 71.19 254.02 68.73
  Q 253.78 63.90 253.72 58.42
  Q 253.72 58.35 253.79 58.38
  Q 253.79 58.38 253.66 58.37
  Q 253.58 58.37 253.56 58.45
  Q 252.93 63.36 253.40 67.77
  Q 253.62 69.78 253.26 71.75
  Q 253.19 72.14 252.87 72.38
  Z
  M 245.26 212.51
  Q 245.53 212.69 245.66 213.15
  Q 245.79 213.63 245.86 213.14
  Q 245.98 212.22 245.48 211.28
  Q 246.56 184.03 246.98 156.75
  Q 247.14 146.42 247.44 136.75
  Q 248.49 103.78 249.20 71.75
  Q 249.34 65.30 248.98 58.70
  Q 248.97 58.45 248.72 58.46
  L 248.43 58.47
  Q 248.17 58.47 248.17 58.73
  Q 247.85 75.81 247.13 99.00
  C 246.05 133.84 245.30 167.63 244.80 203.00
  Q 244.75 206.76 244.86 210.41
  Q 244.87 210.90 244.69 211.36
  Q 244.43 212.03 244.72 212.64
  Q 244.85 212.91 245.09 212.74
  Q 245.30 212.60 245.26 212.51
  Z
  M 251.7445 58.9177
  A 0.27 0.27 0.0 0 0 251.4721 58.6501
  L 251.4321 58.6504
  A 0.27 0.27 0.0 0 0 251.1645 58.9228
  L 251.2755 71.6423
  A 0.27 0.27 0.0 0 0 251.5479 71.9099
  L 251.5879 71.9096
  A 0.27 0.27 0.0 0 0 251.8555 71.6372
  L 251.7445 58.9177
  Z"
/>
<rect fill="#fefcfa" fill-opacity="0.996" x="-0.56" y="-99.82" transform="translate(259.35,156.95) rotate(-1.8)" width="1.12" height="199.64" rx="0.26"/>
<path fill="#fefcfa" fill-opacity="0.996" d="
  M 253.26 71.75
  Q 253.62 69.78 253.40 67.77
  Q 252.93 63.36 253.56 58.45
  Q 253.58 58.37 253.66 58.37
  Q 253.79 58.38 253.79 58.38
  Q 253.72 58.35 253.72 58.42
  Q 253.78 63.90 254.02 68.73
  C 254.14 71.19 253.09 73.65 253.13 75.75
  Q 253.64 99.55 253.43 122.99
  Q 253.33 133.90 253.45 143.11
  Q 253.88 176.22 253.82 205.54
  Q 253.81 215.05 253.95 225.50
  Q 254.17 241.24 253.87 256.21
  A 0.46 0.44 79.9 0 1 253.60 256.61
  Q 253.19 256.77 253.19 256.44
  Q 252.78 204.46 252.17 156.99
  Q 252.02 146.07 252.03 136.98
  Q 252.05 107.68 252.24 78.50
  Q 252.25 76.00 252.40 73.36
  Q 252.42 72.97 252.63 72.64
  Q 252.73 72.49 252.87 72.38
  Q 253.19 72.14 253.26 71.75
  Z"
/>
<path fill="#fefcfa" fill-opacity="0.996" d="
  M 245.48 211.28
  Q 244.86 211.86 245.26 212.51
  Q 245.30 212.60 245.09 212.74
  Q 244.85 212.91 244.72 212.64
  Q 244.43 212.03 244.69 211.36
  Q 244.87 210.90 244.86 210.41
  Q 244.75 206.76 244.80 203.00
  C 245.30 167.63 246.05 133.84 247.13 99.00
  Q 247.85 75.81 248.17 58.73
  Q 248.17 58.47 248.43 58.47
  L 248.72 58.46
  Q 248.97 58.45 248.98 58.70
  Q 249.34 65.30 249.20 71.75
  Q 248.49 103.78 247.44 136.75
  Q 247.14 146.42 246.98 156.75
  Q 246.56 184.03 245.48 211.28
  Z"
/>
<rect fill="#fefcfa" fill-opacity="0.996" x="-0.29" y="-6.63" transform="translate(251.51,65.28) rotate(-0.5)" width="0.58" height="13.26" rx="0.27"/>
<path fill="#3e332f" d="
  M 229.31 171.79
  Q 228.67 170.16 226.97 171.30
  Q 229.73 164.04 230.83 154.12
  Q 232.59 138.20 223.89 124.82
  Q 217.63 115.20 208.98 109.82
  C 204.15 106.82 198.66 104.04 193.06 102.61
  Q 184.24 100.36 172.75 100.70
  C 160.42 101.08 150.49 105.13 140.76 112.48
  Q 125.57 123.97 121.01 142.62
  Q 118.37 153.43 121.08 163.19
  Q 122.00 166.50 124.19 170.96
  C 130.53 183.87 143.30 192.74 158.23 191.90
  Q 170.67 191.20 178.68 181.47
  Q 179.52 180.45 180.36 179.48
  Q 183.47 175.94 181.22 180.08
  C 175.26 191.07 164.46 197.64 152.05 197.68
  C 138.16 197.71 126.47 189.58 118.87 178.62
  Q 117.41 176.52 114.82 171.28
  C 102.96 147.30 111.56 118.15 130.37 100.54
  Q 137.28 94.08 147.59 89.42
  Q 160.54 83.58 177.06 84.23
  C 192.54 84.84 207.85 91.76 217.83 103.76
  C 223.93 111.08 229.09 119.79 230.93 129.23
  Q 234.08 145.41 231.58 162.50
  Q 231.18 165.20 229.31 171.79
  Z"
/>
<path fill="#3e332f" d="
  M 340.53 253.39
  Q 325.82 259.15 310.80 263.87
  Q 310.63 263.93 310.57 263.76
  L 310.57 263.75
  Q 310.52 263.59 310.67 263.53
  Q 324.49 258.28 337.21 251.22
  Q 349.19 244.58 358.60 236.41
  C 364.66 231.15 371.00 222.84 373.22 215.16
  C 378.58 196.66 372.79 178.56 356.88 167.14
  Q 352.72 164.16 344.73 162.05
  C 326.07 157.12 306.97 166.00 298.90 183.87
  C 296.22 189.81 296.47 194.87 298.71 200.72
  Q 298.79 200.91 298.58 200.94
  L 298.24 200.99
  A 0.25 0.23 -19.2 0 1 297.99 200.88
  Q 295.41 196.56 295.22 192.39
  Q 294.40 174.13 307.45 160.87
  Q 316.29 151.90 327.32 149.01
  C 349.42 143.21 371.19 151.71 381.91 171.74
  C 395.75 197.62 385.75 226.71 362.10 242.26
  C 355.53 246.59 347.80 250.55 340.53 253.39
  Z"
/>
<path fill="#bf5b2b" d="
  M 229.31 171.79
  Q 228.73 173.80 228.01 175.84
  Q 221.59 194.04 212.30 209.77
  Q 205.92 220.57 196.05 234.77
  C 181.46 255.74 165.85 276.23 151.76 299.01
  Q 142.80 313.49 135.99 329.18
  C 128.53 346.38 124.49 365.71 125.22 384.25
  Q 125.63 394.74 128.06 409.01
  Q 127.98 409.36 127.73 409.49
  Q 121.47 381.03 125.63 351.75
  Q 126.94 342.51 129.63 334.10
  C 132.44 325.33 135.29 316.87 139.34 308.47
  C 147.34 291.81 157.73 275.75 168.43 261.06
  Q 183.78 240.02 199.22 218.72
  Q 204.75 211.10 209.87 203.15
  Q 215.99 193.67 219.60 187.06
  Q 221.97 182.71 226.97 171.30
  Q 228.67 170.16 229.31 171.79
  Z"
/>
<path fill="#3e332f" d="
  M 225.21 298.56
  Q 223.88 297.72 223.40 299.22
  Q 221.79 304.24 221.58 310.28
  Q 221.26 319.65 220.81 327.32
  C 220.38 334.67 216.97 344.76 210.30 348.92
  C 204.80 352.35 197.42 352.87 192.58 348.19
  C 190.05 345.74 189.02 340.58 192.28 338.12
  C 198.09 333.72 203.95 342.79 198.64 345.86
  Q 197.83 346.33 197.08 346.92
  A 0.98 0.98 0.0 0 0 196.92 348.31
  C 198.56 350.32 202.23 349.93 204.24 348.94
  C 211.84 345.17 214.27 338.02 214.90 329.99
  Q 215.68 320.08 216.54 310.90
  Q 217.10 304.96 219.66 298.65
  C 221.31 294.57 225.55 290.88 230.07 292.34
  C 235.47 294.09 233.84 301.33 228.86 300.84
  C 227.04 300.66 226.56 299.42 225.21 298.56
  Z"
/>
<path fill="#3e332f" d="
  M 310.96 347.36
  Q 310.16 346.35 309.01 345.70
  C 303.73 342.75 309.11 334.32 314.50 337.21
  C 317.98 339.08 318.67 343.11 316.54 346.39
  Q 314.50 349.54 310.96 350.64
  C 302.79 353.18 296.35 350.60 291.94 343.52
  C 287.36 336.17 287.16 330.58 286.52 320.44
  C 286.04 312.95 286.48 305.26 283.57 298.31
  A 0.72 0.72 0.0 0 0 282.44 298.04
  C 281.12 299.13 280.10 300.84 278.29 301.08
  C 273.69 301.70 270.47 295.99 275.04 293.29
  C 283.95 288.02 289.59 300.06 290.61 306.55
  Q 292.19 316.58 292.89 329.07
  Q 293.17 334.17 294.85 339.26
  C 296.97 345.71 303.39 352.84 310.78 348.32
  Q 311.41 347.94 310.96 347.36
  Z"
/>
<rect fill="#f18f4d" x="-22.19" y="-2.36" transform="translate(253.49,325.97) rotate(0.1)" width="44.38" height="4.72" rx="1.47"/>
<path fill="#3e332f" d="
  M 243.92 360.54
  Q 242.76 366.19 244.70 372.85
  L 245.00 361.46
  Q 245.01 360.96 245.49 360.84
  Q 249.39 359.83 253.15 361.00
  Q 252.93 367.06 253.29 373.10
  Q 253.30 373.32 253.51 373.32
  L 253.52 373.32
  Q 253.73 373.32 253.75 373.11
  Q 254.30 367.08 254.04 361.02
  Q 258.43 359.90 262.79 361.08
  Q 263.30 361.22 263.81 361.07
  Q 266.93 360.15 270.60 360.82
  A 0.54 0.54 0.0 0 1 271.04 361.35
  C 271.05 365.80 270.05 370.19 269.36 374.84
  Q 268.67 379.47 267.42 385.09
  Q 261.86 410.08 258.17 434.37
  Q 257.77 437.00 257.67 439.66
  C 257.38 447.39 260.15 450.56 266.14 454.76
  Q 270.07 457.51 269.63 461.73
  Q 269.22 465.70 265.80 466.59
  C 259.75 468.18 252.81 468.15 246.52 468.12
  Q 232.09 468.07 215.69 463.35
  Q 199.61 458.72 187.31 449.90
  Q 159.35 429.87 149.92 395.11
  Q 149.51 393.59 151.02 394.01
  Q 157.99 395.95 164.96 393.09
  Q 171.03 390.61 176.24 387.73
  Q 182.15 384.46 187.16 382.81
  C 197.39 379.44 209.79 380.65 219.21 386.85
  Q 232.53 395.61 236.59 411.28
  C 238.92 420.29 237.60 429.53 237.03 438.65
  C 236.79 442.45 236.93 447.96 239.90 450.69
  C 245.00 455.38 250.77 450.74 250.90 444.70
  Q 251.04 438.32 249.88 431.51
  C 247.91 419.86 246.12 409.49 243.37 396.56
  Q 240.20 381.67 237.42 364.97
  Q 237.05 362.76 237.23 361.35
  Q 237.29 360.86 237.77 360.74
  Q 240.67 360.01 243.92 360.54
  Z
  M 263.9556 363.8145
  A 0.79 0.79 0.0 0 0 263.1879 363.0028
  L 263.1279 363.0011
  A 0.79 0.79 0.0 0 0 262.3162 363.7687
  L 262.0844 372.0655
  A 0.79 0.79 0.0 0 0 262.8521 372.8772
  L 262.9121 372.8789
  A 0.79 0.79 0.0 0 0 263.7238 372.1113
  L 263.9556 363.8145
  Z
  M 253.03 380.35
  L 256.00 380.21
  A 0.75 0.75 0.0 0 0 256.72 379.42
  L 256.70 378.96
  A 4.09 2.14 87.3 0 0 254.37 374.98
  L 254.17 374.99
  A 4.09 2.14 87.3 0 0 252.22 379.17
  L 252.24 379.63
  A 0.75 0.75 0.0 0 0 253.03 380.35
  Z
  M 247.86 375.62
  L 244.14 375.78
  A 1.05 1.05 0.0 0 0 243.14 376.88
  L 243.16 377.48
  A 3.43 2.80 87.5 0 0 246.11 380.78
  L 246.33 380.77
  A 3.43 2.80 87.5 0 0 248.98 377.22
  L 248.95 376.62
  A 1.05 1.05 0.0 0 0 247.86 375.62
  Z
  M 266.1346 378.1837
  A 2.07 2.07 0.0 0 0 264.4892 375.7625
  L 263.2515 375.5264
  A 2.07 2.07 0.0 0 0 260.8303 377.1719
  L 260.6654 378.0363
  A 2.07 2.07 0.0 0 0 262.3108 380.4575
  L 263.5485 380.6936
  A 2.07 2.07 0.0 0 0 265.9697 379.0481
  L 266.1346 378.1837
  Z"
/>
<path fill="#fefcfa" fill-opacity="0.996" d="
  M 243.92 360.54
  Q 245.33 365.39 244.70 372.85
  Q 242.76 366.19 243.92 360.54
  Z"
/>
<path fill="#fefcfa" fill-opacity="0.996" d="
  M 253.15 361.00
  L 254.04 361.02
  Q 254.30 367.08 253.75 373.11
  Q 253.73 373.32 253.52 373.32
  L 253.51 373.32
  Q 253.30 373.32 253.29 373.10
  Q 252.93 367.06 253.15 361.00
  Z"
/>
<path fill="#3e332f" d="
  M 128.06 409.01
  L 132.87 426.21
  Q 133.68 429.13 132.60 426.30
  Q 129.79 418.93 127.73 409.49
  Q 127.98 409.36 128.06 409.01
  Z"
/>
</svg>
